<?xml version="1.0" encoding="UTF-8"?>
<svg version="1.1" xmlns="http://www.w3.org/2000/svg" width="128" height="64">
<path d="M0 0 C42.24 0 84.48 0 128 0 C128 21.12 128 42.24 128 64 C85.76 64 43.52 64 0 64 C0 42.88 0 21.76 0 0 Z " fill="#CCC7C1" transform="translate(0,0)"/>
<path d="M0 0 C14.85 0 29.7 0 45 0 C45 21.12 45 42.24 45 64 C25.86 64 6.72 64 -13 64 C-12.67 56.74 -12.34 49.48 -12 42 C-5.07 42 1.86 42 9 42 C9 38.37 9 34.74 9 31 C2.07 31 -4.86 31 -12 31 C-12 27.37 -12 23.74 -12 20 C-5.07 20 1.86 20 9 20 C8.7752708 10.84612275 8.7752708 10.84612275 3.9375 5.5 C2.60452617 4.35678167 1.28631172 3.19547878 0 2 C0 1.34 0 0.68 0 0 Z " fill="#CCC7C1" transform="translate(83,0)"/>
<path d="M0 0 C3.45073325 2.92986785 6.79810715 5.79810715 10 9 C10 12.3 10 15.6 10 19 C3.07 19 -3.86 19 -11 19 C-11 22.63 -11 26.26 -11 30 C-4.07 30 2.86 30 10 30 C10 33.63 10 37.26 10 41 C3.07 41 -3.86 41 -11 41 C-11 47.93 -11 54.86 -11 62 C-20.37768859 63.20226777 -20.37768859 63.20226777 -24.95703125 59.80859375 C-32 52.72532189 -32 52.72532189 -32 51 C-28.7 51 -25.4 51 -22 51 C-22 37.14 -22 23.28 -22 9 C-14.74 9 -7.48 9 0 9 C0 6.03 0 3.06 0 0 Z " fill="#32373D" transform="translate(82,1)"/>
<path d="M0 0 C6.27 0 12.54 0 19 0 C19 3.3 19 6.6 19 10 C10.46597982 11.08177721 10.46597982 11.08177721 6.33203125 8.03125 C0 1.66901828 0 1.66901828 0 0 Z " fill="#32373D" transform="translate(31,10)"/>
</svg>
